<svg xmlns="http://www.w3.org/2000/svg" viewBox="0 -960 960 960" width="512" height="512">
  <defs>
    <linearGradient id="bg" x1="0%" y1="0%" x2="100%" y2="100%">
      <stop offset="0%" style="stop-color:#3A3A3A"/>
      <stop offset="100%" style="stop-color:#0A0A0A"/>
    </linearGradient>
  </defs>
  <rect width="512" height="512" fill="url(#bg)" rx="110"/>
  <g transform="translate(96, 96) scale(0.75)">
    <path fill="white" d="m377-80-57-57 184-183 56 56L377-80Zm199 0-56-57 163-163 57 56L576-80ZM137-520l-57-56 164-164 56 57-163 163Zm0 200-57-57 184-183 56 56-183 184Zm623-21-96-239-78 78 19 94-47 48-71-128-127-70 47-48 94 19 78-78-239-95 60-57 287 45 91-90q9-9 20-13.5t22-4.5q11 0 22 4.5t20 13.5q9 8 13.5 19t4.5 22q0 11-4.5 22.5T862-778l-91 90 45 287-56 60Z"/>
  </g>
</svg>
