<svg xmlns="http://www.w3.org/2000/svg" viewBox="0 -960 960 960" width="512" height="512">
  <defs>
    <linearGradient id="bg" x1="0%" y1="0%" x2="100%" y2="100%">
      <stop offset="0%" style="stop-color:#3A3A3A"/>
      <stop offset="100%" style="stop-color:#0A0A0A"/>
    </linearGradient>
  </defs>
  <rect width="512" height="512" fill="url(#bg)" rx="112"/>
  <g transform="translate(80, 80) scale(0.775)">
    <path fill="white" d="M292.31-100v-40q-29.83 0-51.07-21.24Q220-182.48 220-212.31v-415.38q0-29.83 21.24-51.07Q262.48-700 292.31-700h85.77v-108.46q0-14.69 10.34-25.04 10.35-10.34 25.04-10.34h133.08q14.69 0 25.04 10.34 10.34 10.35 10.34 25.04V-700h85.77q29.83 0 51.07 21.24Q740-657.52 740-627.69v415.38q0 29.83-21.24 51.07Q697.52-140 667.69-140v40h-60v-40H352.31v40h-60Zm145.77-600h83.84v-83.84h-83.84V-700ZM583.5-485.81q50.5-13.5 96.5-40.5v-101.38q0-5.39-3.46-8.85t-8.85-3.46H292.31q-5.39 0-8.85 3.46t-3.46 8.85v101.38q46 27 96.5 40.5t103.5 13.5q53 0 103.5-13.5ZM450-372.31v-41.23q-44.69-4.23-87.19-15T280-458.62v246.31q0 5.39 3.46 8.85t8.85 3.46h375.38q5.39 0 8.85-3.46t3.46-8.85v-246.31q-40.31 19.31-82.81 30.08t-87.19 15v41.23h-60Zm30 0Zm0-100Zm0 13.69Z"/>
  </g>
</svg>
